<svg width="161" height="161" viewBox="0 0 161 161" fill="none" xmlns="http://www.w3.org/2000/svg">
<g filter="url(#filter0_bd_80_18)">
<path d="M41 80.5C41 58.6848 58.6848 41 80.5 41C102.315 41 120 58.6848 120 80.5C120 102.315 102.315 120 80.5 120C58.6848 120 41 102.315 41 80.5Z" fill="white" fill-opacity="0.1" shape-rendering="crispEdges"/>
</g>
<g filter="url(#filter1_bd_80_18)">
<path fill-rule="evenodd" clip-rule="evenodd" d="M80.5 122C57.5802 122 39 103.42 39 80.5C39 57.5802 57.5802 39 80.5 39C103.42 39 122 57.5802 122 80.5C122 103.42 103.42 122 80.5 122ZM80.5 41C58.6848 41 41 58.6848 41 80.5C41 102.315 58.6848 120 80.5 120C102.315 120 120 102.315 120 80.5C120 58.6848 102.315 41 80.5 41Z" fill="url(#paint0_linear_80_18)" fill-opacity="0.8" shape-rendering="crispEdges"/>
</g>
<path fill-rule="evenodd" clip-rule="evenodd" d="M63.5 73.3333C63.5 64.0213 71.1265 56.5 80.5 56.5C89.8735 56.5 97.5 64.0213 97.5 73.3333V88.6667C97.5 97.9787 89.8735 105.5 80.5 105.5C71.1265 105.5 63.5 97.9787 63.5 88.6667V73.3333ZM66.5815 71.8333H79V59.5784C72.4618 60.2658 67.2847 65.396 66.5815 71.8333ZM82 59.5784V71.8333H94.4185C93.7153 65.396 88.5381 60.2658 82 59.5784ZM94.5 74.8333H66.5V88.6667C66.5 96.2913 72.7527 102.5 80.5 102.5C88.2473 102.5 94.5 96.2913 94.5 88.6667V74.8333Z" fill="url(#paint1_linear_80_18)"/>
<defs>
<filter id="filter0_bd_80_18" x="2" y="2" width="157" height="157" filterUnits="userSpaceOnUse" color-interpolation-filters="sRGB">
<feFlood flood-opacity="0" result="BackgroundImageFix"/>
<feGaussianBlur in="BackgroundImageFix" stdDeviation="15"/>
<feComposite in2="SourceAlpha" operator="in" result="effect1_backgroundBlur_80_18"/>
<feColorMatrix in="SourceAlpha" type="matrix" values="0 0 0 0 0 0 0 0 0 0 0 0 0 0 0 0 0 0 127 0" result="hardAlpha"/>
<feOffset/>
<feGaussianBlur stdDeviation="19.5"/>
<feComposite in2="hardAlpha" operator="out"/>
<feColorMatrix type="matrix" values="0 0 0 0 0 0 0 0 0 0 0 0 0 0 0 0 0 0 0.35 0"/>
<feBlend mode="normal" in2="effect1_backgroundBlur_80_18" result="effect2_dropShadow_80_18"/>
<feBlend mode="normal" in="SourceGraphic" in2="effect2_dropShadow_80_18" result="shape"/>
</filter>
<filter id="filter1_bd_80_18" x="0" y="0" width="161" height="161" filterUnits="userSpaceOnUse" color-interpolation-filters="sRGB">
<feFlood flood-opacity="0" result="BackgroundImageFix"/>
<feGaussianBlur in="BackgroundImageFix" stdDeviation="15"/>
<feComposite in2="SourceAlpha" operator="in" result="effect1_backgroundBlur_80_18"/>
<feColorMatrix in="SourceAlpha" type="matrix" values="0 0 0 0 0 0 0 0 0 0 0 0 0 0 0 0 0 0 127 0" result="hardAlpha"/>
<feOffset/>
<feGaussianBlur stdDeviation="19.5"/>
<feComposite in2="hardAlpha" operator="out"/>
<feColorMatrix type="matrix" values="0 0 0 0 0 0 0 0 0 0 0 0 0 0 0 0 0 0 0.35 0"/>
<feBlend mode="normal" in2="effect1_backgroundBlur_80_18" result="effect2_dropShadow_80_18"/>
<feBlend mode="normal" in="SourceGraphic" in2="effect2_dropShadow_80_18" result="shape"/>
</filter>
<linearGradient id="paint0_linear_80_18" x1="80.6854" y1="41" x2="78.1867" y2="119.927" gradientUnits="userSpaceOnUse">
<stop stop-color="white"/>
<stop offset="1" stop-color="white" stop-opacity="0"/>
</linearGradient>
<linearGradient id="paint1_linear_80_18" x1="80.5" y1="58" x2="81" y2="126.5" gradientUnits="userSpaceOnUse">
<stop stop-color="white"/>
<stop offset="1" stop-color="white" stop-opacity="0"/>
</linearGradient>
</defs>
</svg>
